<svg width="46" height="48" viewBox="0 0 46 48" fill="none" xmlns="http://www.w3.org/2000/svg">
<path d="M12 0.5H34C40.3513 0.5 45.5 5.64873 45.5 12V36C45.5 42.3513 40.3513 47.5 34 47.5H12C5.64873 47.5 0.5 42.3513 0.5 36V12C0.5 5.64873 5.64873 0.5 12 0.5Z" fill="#0E0E10"/>
<path d="M12 0.5H34C40.3513 0.5 45.5 5.64873 45.5 12V36C45.5 42.3513 40.3513 47.5 34 47.5H12C5.64873 47.5 0.5 42.3513 0.5 36V12C0.5 5.64873 5.64873 0.5 12 0.5Z" stroke="#1C1C21"/>
<path d="M37.3343 16.7956C37.1634 16.1605 36.8287 15.5814 36.3637 15.1163C35.8986 14.6513 35.3195 14.3166 34.6844 14.1457C32.9485 13.4755 16.135 13.1471 11.2576 14.1649C10.6224 14.3358 10.0433 14.6706 9.57821 15.1357C9.11312 15.6008 8.77839 16.1799 8.60752 16.8151C7.82407 20.2523 7.7646 27.6836 8.62672 31.1976C8.79763 31.8327 9.13238 32.4118 9.59746 32.8769C10.0625 33.342 10.6416 33.6767 11.2768 33.8476C14.7139 34.6387 31.0552 34.7501 34.7036 33.8476C35.3387 33.6767 35.9178 33.342 36.3829 32.8769C36.8479 32.4118 37.1827 31.8327 37.3535 31.1976C38.1889 27.4529 38.2483 20.4826 37.3343 16.7956Z" fill="#EBF3FA"/>
<path d="M27.9251 23.9963L20.0906 19.5029V28.4897L27.9251 23.9963Z" fill="black"/>
<path d="M37.3343 16.7956C37.1634 16.1605 36.8287 15.5814 36.3637 15.1163C35.8986 14.6513 35.3195 14.3166 34.6844 14.1457C32.9485 13.4755 16.135 13.1471 11.2576 14.1649C10.6224 14.3358 10.0433 14.6706 9.57821 15.1357C9.11312 15.6008 8.77839 16.1799 8.60752 16.8151C7.82407 20.2523 7.7646 27.6836 8.62672 31.1976C8.79763 31.8327 9.13238 32.4118 9.59746 32.8769C10.0625 33.342 10.6416 33.6767 11.2768 33.8476C14.7139 34.6387 31.0552 34.7501 34.7036 33.8476C35.3387 33.6767 35.9178 33.342 36.3829 32.8769C36.8479 32.4118 37.1827 31.8327 37.3535 31.1976C38.1889 27.4529 38.2483 20.4826 37.3343 16.7956Z" stroke="#EBF3FA" stroke-width="0.75" stroke-linecap="round" stroke-linejoin="round"/>
<path d="M27.9251 23.9963L20.0906 19.5029V28.4897L27.9251 23.9963Z" stroke="#EBF3FA" stroke-width="0.75" stroke-linecap="round" stroke-linejoin="round"/>
</svg>
